<?xml version="1.0" encoding="utf-8"?>
<!-- Generator: Adobe Illustrator 15.1.0, SVG Export Plug-In  -->
<!DOCTYPE svg PUBLIC "-//W3C//DTD SVG 1.1//EN" "http://www.w3.org/Graphics/SVG/1.1/DTD/svg11.dtd" [
	<!ENTITY ns_flows "http://ns.adobe.com/Flows/1.0/">
]>
<svg version="1.1"
	 xmlns="http://www.w3.org/2000/svg" xmlns:xlink="http://www.w3.org/1999/xlink" xmlns:a="http://ns.adobe.com/AdobeSVGViewerExtensions/3.0/"
	 x="0px" y="0px" width="84px" height="70px" viewBox="-0.637 -0.667 84 70"
	 overflow="visible" enable-background="new -0.637 -0.667 84 70" xml:space="preserve">
<defs>
</defs>
<linearGradient id="SVGID_1_" gradientUnits="userSpaceOnUse" x1="41.5981" y1="1.5" x2="41.5981" y2="67.8335">
	<stop  offset="0" style="stop-color:#FFFFFF"/>
	<stop  offset="0.8589" style="stop-color:#FFBAC7"/>
</linearGradient>
<path fill="url(#SVGID_1_)" stroke="#EA6390" stroke-width="3" stroke-miterlimit="10" d="M48.612,12.833h-7.749V5.039
	c0-1.954-2.304-3.539-4.5-3.539c-2.195,0-4.5,1.584-4.5,3.539v7.795h0.207c-1.44,0-5.207-1.062-6.207-0.889V5.039
	c0-1.954-1.804-3.539-4-3.539c-2.195,0-5,1.584-5,3.539V12C6.863,17.166,1.5,31.572,1.5,44.167c0,17.588,12.297,23.667,30.57,23.667
	h16.542c18.272,0,33.084-5.489,33.084-23.077S66.884,12.833,48.612,12.833z"/>
<ellipse fill="none" stroke="#EA6390" stroke-width="3" stroke-miterlimit="10" cx="23.879" cy="35.539" rx="4.818" ry="5.308"/>
<ellipse fill="none" stroke="#EA6390" stroke-width="3" stroke-miterlimit="10" cx="33.515" cy="35.539" rx="4.818" ry="5.308"/>
<ellipse fill="#FFFFFF" stroke="#EA6390" stroke-width="3" stroke-miterlimit="10" cx="11.03" cy="33.769" rx="3.212" ry="3.539"/>
<ellipse fill="#FFFFFF" stroke="#EA6390" stroke-width="3" stroke-miterlimit="10" cx="47.969" cy="33.769" rx="3.212" ry="3.539"/>
</svg>
